<mxfile host="app.diagrams.net" agent="Mozilla/5.0 (X11; Ubuntu; Linux x86_64; rv:139.0) Gecko/20100101 Firefox/139.0" version="27.1.4">
  <diagram name="Page-1" id="7564dqB7mkU5lymGfUwH">
    <mxGraphModel dx="946" dy="616" grid="0" gridSize="10" guides="1" tooltips="1" connect="1" arrows="1" fold="1" page="1" pageScale="1" pageWidth="3300" pageHeight="4681" math="0" shadow="0">
      <root>
        <mxCell id="0" />
        <mxCell id="1" parent="0" />
        <mxCell id="VAmTPCHdweUN2MImFvDR-1" value="" style="rounded=1;whiteSpace=wrap;html=1;" vertex="1" parent="1">
          <mxGeometry x="73" y="77" width="786" height="436" as="geometry" />
        </mxCell>
        <mxCell id="VAmTPCHdweUN2MImFvDR-12" style="edgeStyle=orthogonalEdgeStyle;rounded=0;orthogonalLoop=1;jettySize=auto;html=1;" edge="1" parent="1" source="VAmTPCHdweUN2MImFvDR-2" target="VAmTPCHdweUN2MImFvDR-3">
          <mxGeometry relative="1" as="geometry" />
        </mxCell>
        <mxCell id="VAmTPCHdweUN2MImFvDR-2" value="filter &amp;lt;prompt&amp;gt;" style="rounded=0;whiteSpace=wrap;html=1;" vertex="1" parent="1">
          <mxGeometry x="95" y="265" width="120" height="60" as="geometry" />
        </mxCell>
        <mxCell id="VAmTPCHdweUN2MImFvDR-13" style="edgeStyle=orthogonalEdgeStyle;rounded=1;orthogonalLoop=1;jettySize=auto;html=1;entryX=0;entryY=0.5;entryDx=0;entryDy=0;curved=0;" edge="1" parent="1" source="VAmTPCHdweUN2MImFvDR-3" target="VAmTPCHdweUN2MImFvDR-4">
          <mxGeometry relative="1" as="geometry" />
        </mxCell>
        <mxCell id="VAmTPCHdweUN2MImFvDR-14" style="edgeStyle=orthogonalEdgeStyle;rounded=1;orthogonalLoop=1;jettySize=auto;html=1;entryX=0;entryY=0.5;entryDx=0;entryDy=0;curved=0;" edge="1" parent="1" source="VAmTPCHdweUN2MImFvDR-3" target="VAmTPCHdweUN2MImFvDR-5">
          <mxGeometry relative="1" as="geometry" />
        </mxCell>
        <mxCell id="VAmTPCHdweUN2MImFvDR-15" style="edgeStyle=orthogonalEdgeStyle;rounded=1;orthogonalLoop=1;jettySize=auto;html=1;entryX=0;entryY=0.5;entryDx=0;entryDy=0;curved=0;" edge="1" parent="1" source="VAmTPCHdweUN2MImFvDR-3" target="VAmTPCHdweUN2MImFvDR-7">
          <mxGeometry relative="1" as="geometry" />
        </mxCell>
        <mxCell id="VAmTPCHdweUN2MImFvDR-16" style="edgeStyle=orthogonalEdgeStyle;rounded=1;orthogonalLoop=1;jettySize=auto;html=1;entryX=0;entryY=0.5;entryDx=0;entryDy=0;curved=0;" edge="1" parent="1" source="VAmTPCHdweUN2MImFvDR-3" target="VAmTPCHdweUN2MImFvDR-6">
          <mxGeometry relative="1" as="geometry" />
        </mxCell>
        <mxCell id="VAmTPCHdweUN2MImFvDR-17" style="edgeStyle=orthogonalEdgeStyle;rounded=1;orthogonalLoop=1;jettySize=auto;html=1;entryX=0;entryY=0.5;entryDx=0;entryDy=0;curved=0;" edge="1" parent="1" source="VAmTPCHdweUN2MImFvDR-3" target="VAmTPCHdweUN2MImFvDR-8">
          <mxGeometry relative="1" as="geometry" />
        </mxCell>
        <mxCell id="VAmTPCHdweUN2MImFvDR-3" value="first" style="shape=cylinder3;whiteSpace=wrap;html=1;boundedLbl=1;backgroundOutline=1;size=15;direction=south;" vertex="1" parent="1">
          <mxGeometry x="261" y="274" width="80" height="42" as="geometry" />
        </mxCell>
        <mxCell id="VAmTPCHdweUN2MImFvDR-4" value="execute &amp;lt;prompt&amp;gt;" style="rounded=0;whiteSpace=wrap;html=1;" vertex="1" parent="1">
          <mxGeometry x="408" y="101" width="120" height="60" as="geometry" />
        </mxCell>
        <mxCell id="VAmTPCHdweUN2MImFvDR-5" value="execute &amp;lt;prompt&amp;gt;" style="rounded=0;whiteSpace=wrap;html=1;" vertex="1" parent="1">
          <mxGeometry x="408" y="183" width="120" height="60" as="geometry" />
        </mxCell>
        <mxCell id="VAmTPCHdweUN2MImFvDR-6" value="execute &amp;lt;prompt&amp;gt;" style="rounded=0;whiteSpace=wrap;html=1;" vertex="1" parent="1">
          <mxGeometry x="408" y="347" width="120" height="60" as="geometry" />
        </mxCell>
        <mxCell id="VAmTPCHdweUN2MImFvDR-7" value="execute &amp;lt;prompt&amp;gt;" style="rounded=0;whiteSpace=wrap;html=1;" vertex="1" parent="1">
          <mxGeometry x="408" y="265" width="120" height="60" as="geometry" />
        </mxCell>
        <mxCell id="VAmTPCHdweUN2MImFvDR-8" value="execute &amp;lt;prompt&amp;gt;" style="rounded=0;whiteSpace=wrap;html=1;" vertex="1" parent="1">
          <mxGeometry x="408" y="429" width="120" height="60" as="geometry" />
        </mxCell>
        <mxCell id="VAmTPCHdweUN2MImFvDR-23" style="edgeStyle=orthogonalEdgeStyle;rounded=0;orthogonalLoop=1;jettySize=auto;html=1;" edge="1" parent="1" source="VAmTPCHdweUN2MImFvDR-10" target="VAmTPCHdweUN2MImFvDR-11">
          <mxGeometry relative="1" as="geometry" />
        </mxCell>
        <mxCell id="VAmTPCHdweUN2MImFvDR-10" value="second" style="shape=cylinder3;whiteSpace=wrap;html=1;boundedLbl=1;backgroundOutline=1;size=15;direction=south;" vertex="1" parent="1">
          <mxGeometry x="586" y="274" width="80" height="42" as="geometry" />
        </mxCell>
        <mxCell id="VAmTPCHdweUN2MImFvDR-11" value="merge &amp;lt;prompt&amp;gt;" style="rounded=0;whiteSpace=wrap;html=1;" vertex="1" parent="1">
          <mxGeometry x="707" y="265" width="120" height="60" as="geometry" />
        </mxCell>
        <mxCell id="VAmTPCHdweUN2MImFvDR-18" style="edgeStyle=orthogonalEdgeStyle;rounded=1;orthogonalLoop=1;jettySize=auto;html=1;entryX=0.5;entryY=1;entryDx=0;entryDy=0;entryPerimeter=0;curved=0;" edge="1" parent="1" source="VAmTPCHdweUN2MImFvDR-4" target="VAmTPCHdweUN2MImFvDR-10">
          <mxGeometry relative="1" as="geometry" />
        </mxCell>
        <mxCell id="VAmTPCHdweUN2MImFvDR-19" style="edgeStyle=orthogonalEdgeStyle;rounded=1;orthogonalLoop=1;jettySize=auto;html=1;entryX=0.5;entryY=1;entryDx=0;entryDy=0;entryPerimeter=0;curved=0;" edge="1" parent="1" source="VAmTPCHdweUN2MImFvDR-5" target="VAmTPCHdweUN2MImFvDR-10">
          <mxGeometry relative="1" as="geometry" />
        </mxCell>
        <mxCell id="VAmTPCHdweUN2MImFvDR-20" style="edgeStyle=orthogonalEdgeStyle;rounded=1;orthogonalLoop=1;jettySize=auto;html=1;entryX=0.5;entryY=1;entryDx=0;entryDy=0;entryPerimeter=0;curved=0;" edge="1" parent="1" source="VAmTPCHdweUN2MImFvDR-7" target="VAmTPCHdweUN2MImFvDR-10">
          <mxGeometry relative="1" as="geometry" />
        </mxCell>
        <mxCell id="VAmTPCHdweUN2MImFvDR-21" style="edgeStyle=orthogonalEdgeStyle;rounded=1;orthogonalLoop=1;jettySize=auto;html=1;entryX=0.5;entryY=1;entryDx=0;entryDy=0;entryPerimeter=0;curved=0;" edge="1" parent="1" source="VAmTPCHdweUN2MImFvDR-6" target="VAmTPCHdweUN2MImFvDR-10">
          <mxGeometry relative="1" as="geometry" />
        </mxCell>
        <mxCell id="VAmTPCHdweUN2MImFvDR-22" style="edgeStyle=orthogonalEdgeStyle;rounded=1;orthogonalLoop=1;jettySize=auto;html=1;entryX=0.5;entryY=1;entryDx=0;entryDy=0;entryPerimeter=0;curved=0;" edge="1" parent="1" source="VAmTPCHdweUN2MImFvDR-8" target="VAmTPCHdweUN2MImFvDR-10">
          <mxGeometry relative="1" as="geometry" />
        </mxCell>
        <mxCell id="VAmTPCHdweUN2MImFvDR-24" value="SOGPT" style="text;html=1;align=center;verticalAlign=middle;resizable=0;points=[];autosize=1;strokeColor=none;fillColor=none;fontSize=20;" vertex="1" parent="1">
          <mxGeometry x="424" y="31" width="88" height="36" as="geometry" />
        </mxCell>
      </root>
    </mxGraphModel>
  </diagram>
</mxfile>
